# xmcd
#
# Track frame offsets: 
#        225
#        16920
#        30767
#        46340
#        62681
#        77185
#        90803
#        107502
#        120080
#        133793
#        148677
#        164561
#        180236
#        198035
#
# Disc length: 2874 seconds
#
# Revision: 2
# Processed by: cddbd v1.5.2PL0 Copyright (c) Steve Scherf et al.
# Submitted via: ExactAudioCopy v1.0b3
#
DISCID=9e0b370e
DTITLE=Various Artist - Mega Party Hits CD2
DYEAR=2003
DGENRE=Dance
TTITLE0=DJ Charly - Do Wah Diddy
TTITLE1=Bernie Bennings - Warum nicht heut'
TTITLE2=G. McAnthony - Medley: Take me home, Country Roads, My Bonnie 
TTITLE3=Bernie Bennings - Today is the day
TTITLE4=A. Moor feat. Jane Wonder - World of Fantasy
TTITLE5=Playa Party Projekt - Country Roads (Take me home)
TTITLE6=Contour - Ma Baker
TTITLE7=Tops - Hände zum Himmel
TTITLE8=Cover Abba - Rock me
TTITLE9=Alpenrocker - Fürstenfeld
TTITLE10=Partygeier - Wahnsinn (Hölle, Hölle)
TTITLE11=Teddy Lion - La Bamba
TTITLE12=Teddy Lion - Ole Ola Cervesa
TTITLE13=Patty Rayn - Du hast mich tausendmal belogen
EXTD=
EXTT0=
EXTT1=
EXTT2=
EXTT3=
EXTT4=
EXTT5=
EXTT6=
EXTT7=
EXTT8=
EXTT9=
EXTT10=
EXTT11=
EXTT12=
EXTT13=
PLAYORDER=
